<svg xmlns="http://www.w3.org/2000/svg" viewBox="0 0 24 24" fill="none" id="logo">
    <path d="M0 5C0 2.23858 2.23858 0 5 0H19C21.7614 0 24 2.23858 24 5V19C24 21.7614 21.7614 24 19 24H5C2.23858 24 0 21.7614 0 19V5Z" fill="#FFD36F"></path>
    <path fill-rule="evenodd" clip-rule="evenodd" d="M4.99988 11C4.99988 8.23858 7.23845 6 9.99988 6C12.7613 6 14.9999 8.23858 14.9999 11V13C14.9999 15.7614 12.7613 18 9.99988 18C7.23845 18 4.99988 15.7614 4.99988 13V11ZM12.9999 11V13C12.9999 14.6569 11.6567 16 9.99988 16C8.34302 16 6.99988 14.6569 6.99988 13V11C6.99988 9.34315 8.34302 8 9.99988 8C11.6567 8 12.9999 9.34315 12.9999 11Z" fill="#083232"></path>
    <path d="M16.9999 7C16.9999 6.44772 17.4476 6 17.9999 6C18.5522 6 18.9999 6.44772 18.9999 7V13C18.9999 13.5523 18.5522 14 17.9999 14C17.4476 14 16.9999 13.5523 16.9999 13V7Z" fill="#083232"></path>
    <path d="M17.9999 16C17.4476 16 16.9999 16.4477 16.9999 17C16.9999 17.5523 17.4476 18 17.9999 18C18.5522 18 18.9999 17.5523 18.9999 17C18.9999 16.4477 18.5522 16 17.9999 16Z" fill="#083232"></path>
</svg>